<?xml version="1.0" standalone="no"?>
<!DOCTYPE svg PUBLIC "-//W3C//DTD SVG 20010904//EN"
 "http://www.w3.org/TR/2001/REC-SVG-20010904/DTD/svg10.dtd">
<svg version="1.0" xmlns="http://www.w3.org/2000/svg"
 width="512.000000pt" height="512.000000pt" viewBox="0 0 512.000000 512.000000"
 preserveAspectRatio="xMidYMid meet">

<g transform="translate(0.000000,512.000000) scale(0.100000,-0.100000)"
fill="#000000" stroke="none">
<path d="M2403 5105 c-536 -97 -991 -658 -1212 -1495 -161 -611 -171 -1369
-26 -1990 13 -57 23 -106 21 -108 -2 -2 -32 9 -67 24 -255 107 -485 259 -645
426 -129 134 -212 273 -251 418 -24 87 -23 271 0 360 38 142 135 305 252 420
l65 64 0 -39 c0 -68 18 -114 53 -135 40 -25 64 -25 104 0 46 28 56 74 51 260
-3 171 -12 201 -66 221 -15 6 -102 9 -210 7 l-184 -3 -24 -28 c-26 -30 -32
-83 -14 -117 12 -23 43 -41 84 -49 l28 -6 -67 -75 c-232 -259 -331 -560 -280
-851 81 -464 500 -865 1164 -1114 l85 -31 31 -85 c98 -261 215 -476 364 -669
404 -524 959 -654 1443 -338 123 80 168 126 168 171 0 23 -9 46 -25 65 -48 57
-93 50 -200 -32 -78 -60 -191 -118 -285 -147 -97 -30 -280 -33 -380 -6 -249
67 -491 273 -682 582 -78 125 -197 369 -186 381 2 2 51 -8 108 -21 450 -105
1000 -131 1490 -69 997 125 1780 596 1964 1182 55 175 60 392 10 451 -13 16
-36 31 -51 34 -36 7 -88 -15 -103 -43 -6 -11 -13 -80 -14 -153 -4 -147 -18
-212 -71 -324 -93 -199 -278 -389 -530 -545 -707 -438 -1863 -563 -2801 -301
l-92 25 -25 92 c-316 1134 -65 2528 565 3132 134 129 273 212 418 251 87 24
271 23 360 0 142 -38 305 -135 420 -252 l64 -65 -51 0 c-28 0 -63 -4 -76 -9
-71 -27 -90 -109 -38 -162 l29 -29 191 0 191 0 32 29 33 29 3 175 c4 204 -4
238 -63 263 -67 28 -129 -11 -137 -86 l-3 -32 -75 67 c-258 232 -567 333 -857
280z"/>
<path d="M4545 3784 c-87 -22 -138 -57 -180 -124 -62 -98 -46 -239 37 -322
125 -124 323 -96 420 60 33 54 37 163 8 230 -24 56 -83 116 -134 137 -37 16
-121 26 -151 19z m83 -210 c45 -32 18 -114 -38 -114 -57 0 -84 76 -40 112 27
22 49 23 78 2z"/>
<path d="M1725 3596 c-122 -56 -186 -219 -117 -297 21 -23 37 -31 64 -32 53
-1 85 24 103 85 8 28 21 55 28 60 21 13 311 10 325 -4 8 -8 12 -63 12 -180 l0
-168 -146 0 -146 0 -29 -29 c-40 -40 -40 -89 0 -133 l29 -33 146 -3 146 -4 0
-163 c0 -206 9 -195 -175 -195 -159 0 -175 7 -189 73 -15 65 -47 97 -98 97
-30 0 -46 -7 -69 -29 -25 -25 -29 -37 -29 -83 0 -68 34 -141 87 -189 63 -57
95 -64 298 -64 161 0 185 2 225 21 58 26 108 76 134 134 20 43 21 64 24 455 2
253 -1 436 -8 478 -16 102 -63 167 -150 206 -40 18 -65 21 -230 21 -173 0
-188 -2 -235 -24z"/>
<path d="M2610 3599 c-54 -24 -83 -50 -119 -104 l-26 -40 -3 -475 c-3 -530 -4
-524 65 -595 70 -72 101 -80 328 -80 231 0 255 5 326 72 76 71 84 103 84 328
0 177 -2 193 -23 240 -30 66 -66 102 -127 131 -47 23 -60 24 -252 24 l-203 0
0 149 c0 107 4 151 13 159 7 6 87 12 190 14 l179 3 29 33 c16 18 29 44 29 58
0 33 -25 81 -49 94 -12 6 -97 10 -208 10 -168 0 -193 -3 -233 -21z m438 -711
c8 -8 12 -64 12 -184 0 -218 14 -204 -200 -204 -215 0 -200 -16 -200 216 l0
184 188 0 c133 0 192 -4 200 -12z"/>
<path d="M3530 3599 c-54 -24 -83 -50 -119 -104 l-26 -40 -3 -475 c-3 -530 -4
-524 65 -595 71 -73 101 -80 333 -80 187 0 209 2 250 21 58 26 108 76 134 134
20 43 21 64 24 459 2 274 0 436 -8 479 -17 98 -65 163 -150 201 -41 19 -65 21
-250 21 -185 0 -209 -2 -250 -21z m447 -209 c10 -19 12 -118 11 -438 l-3 -414
-24 -19 c-21 -17 -41 -19 -180 -19 -125 0 -161 3 -179 16 l-22 15 0 433 c0
327 3 435 12 444 9 9 61 12 192 10 l180 -3 13 -25z"/>
<path d="M4833 3055 c-32 -32 -35 -40 -30 -73 7 -44 55 -92 93 -92 102 0 142
140 53 186 -46 23 -78 17 -116 -21z"/>
<path d="M3394 731 c-60 -26 -73 -113 -25 -162 62 -61 161 -19 161 70 0 71
-72 119 -136 92z"/>
</g>
</svg>
