<?xml version="1.0" standalone="no"?>
<!DOCTYPE svg PUBLIC "-//W3C//DTD SVG 20010904//EN"
 "http://www.w3.org/TR/2001/REC-SVG-20010904/DTD/svg10.dtd">
<svg version="1.0" xmlns="http://www.w3.org/2000/svg"
 width="512.000000pt" height="512.000000pt" viewBox="0 0 512.000000 512.000000"
 preserveAspectRatio="xMidYMid meet">

<g transform="translate(0.000000,512.000000) scale(0.100000,-0.100000)"
fill="#000000" stroke="none">
<path d="M2265 4845 c-336 -44 -696 -178 -970 -360 -433 -289 -762 -716 -920
-1198 -81 -249 -115 -461 -115 -727 0 -608 224 -1164 644 -1598 196 -202 388
-342 641 -467 321 -159 648 -235 1015 -235 509 0 979 156 1390 463 122 91 356
325 447 447 307 411 463 881 463 1390 0 432 -113 837 -334 1200 -364 596 -989
999 -1686 1086 -140 17 -438 17 -575 -1z m982 -747 c64 -24 137 -92 166 -156
16 -36 21 -66 21 -127 -1 -153 -71 -263 -211 -332 -71 -35 -82 -38 -167 -37
-78 0 -100 4 -154 29 -76 34 -134 96 -158 167 -25 76 -16 196 21 271 85 172
297 253 482 185z m-362 -819 c166 -51 224 -201 159 -411 -22 -71 -228 -489
-547 -1111 -83 -161 -87 -237 -11 -237 66 0 140 48 329 215 95 83 151 125 168
125 18 0 47 -43 47 -69 0 -42 -72 -135 -171 -221 -208 -179 -471 -319 -689
-366 -78 -16 -220 -18 -290 -3 -69 15 -139 64 -170 119 -58 105 -15 298 134
603 41 84 181 348 310 587 243 449 256 479 219 515 -26 27 -101 15 -168 -26
-31 -19 -112 -84 -180 -145 -68 -62 -138 -122 -155 -134 -40 -29 -81 -24 -98
13 -12 25 -11 32 12 71 31 54 148 164 275 259 274 206 589 289 826 216z"/>
</g>
</svg>
