<?xml version="1.0" standalone="no"?>
<!DOCTYPE svg PUBLIC "-//W3C//DTD SVG 20010904//EN"
 "http://www.w3.org/TR/2001/REC-SVG-20010904/DTD/svg10.dtd">
<svg version="1.0" xmlns="http://www.w3.org/2000/svg"
 width="512.000000pt" height="512.000000pt" viewBox="0 0 512.000000 512.000000"
 preserveAspectRatio="xMidYMid meet">

<g transform="translate(0.000000,512.000000) scale(0.100000,-0.100000)"
fill="#000000" stroke="none">
<path d="M1720 5114 c-389 -37 -704 -156 -995 -378 -319 -243 -564 -614 -666
-1008 -137 -534 -20 -1123 310 -1563 249 -332 645 -598 1021 -685 30 -7 60
-16 66 -21 6 -5 17 -35 24 -66 36 -165 133 -383 243 -551 401 -613 1107 -928
1833 -817 383 58 738 239 1019 520 239 238 403 525 486 847 137 534 20 1123
-310 1563 -249 332 -645 598 -1021 685 -30 7 -60 16 -66 21 -6 5 -17 35 -24
66 -20 93 -78 250 -130 356 -287 579 -845 964 -1489 1027 -97 9 -222 11 -301
4z m1844 -1438 c48 -8 90 -16 92 -18 3 -4 24 -139 41 -262 l8 -58 90 -33 c220
-78 410 -200 571 -366 148 -152 208 -236 295 -414 142 -293 188 -591 139 -915
-99 -654 -636 -1191 -1290 -1290 -324 -49 -622 -3 -915 139 -178 87 -262 147
-414 295 -166 161 -288 351 -366 571 l-33 90 -58 8 c-124 17 -258 38 -262 41
-2 2 -11 46 -19 97 -21 117 -23 417 -4 544 89 610 460 1123 1013 1401 210 105
388 154 688 188 69 8 337 -3 424 -18z"/>
<path d="M3145 3394 c-16 -2 -66 -9 -110 -15 -529 -70 -1019 -465 -1211 -976
-72 -191 -98 -344 -98 -568 0 -163 11 -252 45 -379 l11 -39 131 7 c495 25 905
203 1242 541 338 337 516 747 541 1242 l7 131 -39 11 c-104 28 -212 42 -344
46 -80 2 -158 2 -175 -1z"/>
</g>
</svg>
