<?xml version="1.0" standalone="no"?>
<!DOCTYPE svg PUBLIC "-//W3C//DTD SVG 20010904//EN"
 "http://www.w3.org/TR/2001/REC-SVG-20010904/DTD/svg10.dtd">
<svg version="1.0" xmlns="http://www.w3.org/2000/svg"
 width="512.000000pt" height="512.000000pt" viewBox="0 0 512.000000 512.000000"
 preserveAspectRatio="xMidYMid meet">

<g transform="translate(0.000000,512.000000) scale(0.100000,-0.100000)"
fill="#000000" stroke="none">
<path d="M1328 3868 l-1227 -1141 106 -113 c58 -63 109 -114 112 -114 4 0 77
65 163 145 86 80 159 145 162 145 3 0 6 -589 6 -1310 l0 -1310 1910 0 1910 0
0 1311 c0 735 4 1309 9 1307 4 -1 76 -66 160 -143 83 -77 155 -141 159 -143 5
-1 56 49 115 112 l107 114 -1227 1138 c-674 627 -1228 1140 -1232 1141 -3 1
-558 -512 -1233 -1139z m2032 -36 l790 -733 0 -1305 0 -1304 -1590 0 -1590 0
0 1304 0 1304 793 736 c435 405 796 735 800 733 4 -1 363 -332 797 -735z"/>
</g>
</svg>
