<?xml version="1.0" standalone="no"?>
<!DOCTYPE svg PUBLIC "-//W3C//DTD SVG 20010904//EN"
 "http://www.w3.org/TR/2001/REC-SVG-20010904/DTD/svg10.dtd">
<svg version="1.0" xmlns="http://www.w3.org/2000/svg"
 width="512.000000pt" height="512.000000pt" viewBox="0 0 512.000000 512.000000"
 preserveAspectRatio="xMidYMid meet">

<g transform="translate(0.000000,512.000000) scale(0.100000,-0.100000)"
fill="#000000" stroke="none">
<path d="M836 4844 l-26 -27 0 -268 0 -269 -165 0 c-163 0 -166 0 -190 -25
l-25 -24 0 -656 0 -656 25 -24 24 -25 251 0 250 0 0 -575 0 -575 -151 0 -151
0 -29 -29 -29 -29 0 -379 c1 -281 4 -382 13 -394 27 -36 52 -39 301 -39 l246
0 0 -275 0 -276 25 -24 24 -25 1331 0 1331 0 24 25 25 24 0 276 0 275 246 0
c249 0 274 3 301 39 9 12 12 113 13 394 l0 379 -29 29 -29 29 -151 0 -151 0 0
575 0 575 250 0 251 0 24 25 25 24 0 656 0 656 -25 24 c-24 25 -27 25 -190 25
l-165 0 0 269 0 268 -26 27 -27 26 -1697 0 -1697 0 -27 -26z m3314 -349 l0
-215 -1590 0 -1590 0 0 215 0 215 1590 0 1590 0 0 -215z m-3380 -920 l0 -545
-90 0 -90 0 0 545 0 545 90 0 90 0 0 -545z m430 0 l0 -545 -135 0 -135 0 0
545 0 545 135 0 135 0 0 -545z m420 0 l0 -545 -130 0 -130 0 0 545 0 545 130
0 130 0 0 -545z m430 0 l0 -545 -135 0 -135 0 0 545 0 545 135 0 135 0 0 -545z
m430 0 l0 -545 -135 0 -135 0 0 545 0 545 135 0 135 0 0 -545z m430 0 l0 -545
-135 0 -135 0 0 545 0 545 135 0 135 0 0 -545z m430 0 l0 -545 -135 0 -135 0
0 545 0 545 135 0 135 0 0 -545z m420 0 l0 -545 -130 0 -130 0 0 545 0 545
130 0 130 0 0 -545z m430 0 l0 -545 -135 0 -135 0 0 545 0 545 135 0 135 0 0
-545z m340 0 l0 -545 -90 0 -90 0 0 545 0 545 90 0 90 0 0 -545z m-550 -1280
l0 -575 -1420 0 -1420 0 0 575 0 575 1420 0 1420 0 0 -575z m-3100 -1010 l0
-275 -50 0 -50 0 0 275 0 275 50 0 50 0 0 -275z m320 0 l0 -275 -80 0 -80 0 0
275 0 275 80 0 80 0 0 -275z m320 0 l0 -275 -80 0 -80 0 0 275 0 275 80 0 80
0 0 -275z m320 0 l0 -275 -80 0 -80 0 0 275 0 275 80 0 80 0 0 -275z m320 0
l0 -275 -80 0 -80 0 0 275 0 275 80 0 80 0 0 -275z m320 0 l0 -275 -80 0 -80
0 0 275 0 275 80 0 80 0 0 -275z m320 0 l0 -275 -80 0 -80 0 0 275 0 275 80 0
80 0 0 -275z m320 0 l0 -275 -80 0 -80 0 0 275 0 275 80 0 80 0 0 -275z m320
0 l0 -275 -80 0 -80 0 0 275 0 275 80 0 80 0 0 -275z m320 0 l0 -275 -80 0
-80 0 0 275 0 275 80 0 80 0 0 -275z m320 0 l0 -275 -80 0 -80 0 0 275 0 275
80 0 80 0 0 -275z m260 0 l0 -275 -50 0 -50 0 0 275 0 275 50 0 50 0 0 -275z
m-560 -655 l0 -220 -1220 0 -1220 0 0 220 0 220 1220 0 1220 0 0 -220z"/>
<path d="M1845 2585 l-25 -24 0 -266 0 -266 25 -24 24 -25 691 0 691 0 24 25
25 24 0 266 0 266 -25 24 -24 25 -691 0 -691 0 -24 -25z m635 -290 l0 -155
-250 0 -250 0 0 155 0 155 250 0 250 0 0 -155z m660 0 l0 -155 -250 0 -250 0
0 155 0 155 250 0 250 0 0 -155z"/>
</g>
</svg>
