<?xml version="1.0" standalone="no"?>
<!DOCTYPE svg PUBLIC "-//W3C//DTD SVG 20010904//EN"
 "http://www.w3.org/TR/2001/REC-SVG-20010904/DTD/svg10.dtd">
<svg version="1.0" xmlns="http://www.w3.org/2000/svg"
 width="512.000000pt" height="512.000000pt" viewBox="0 0 512.000000 512.000000"
 preserveAspectRatio="xMidYMid meet">

<g transform="translate(0.000000,512.000000) scale(0.100000,-0.100000)"
fill="#000000" stroke="none">
<path d="M395 4149 c-179 -26 -345 -184 -384 -367 -16 -75 -16 -2369 0 -2444
42 -193 205 -342 405 -368 52 -7 521 -10 1394 -8 l1315 3 65 23 c131 47 240
151 291 279 22 55 24 73 27 321 2 154 7 262 13 262 5 0 324 -126 709 -280 756
-302 754 -302 821 -257 74 49 69 -42 69 1247 0 1289 5 1198 -69 1247 -67 45
-65 45 -821 -257 -385 -154 -704 -280 -709 -280 -6 0 -11 108 -13 263 -3 247
-5 265 -27 320 -51 128 -160 232 -291 279 l-65 23 -1335 1 c-734 1 -1362 -2
-1395 -7z m2687 -299 c44 -13 93 -52 113 -91 22 -42 22 -2356 0 -2398 -20 -39
-69 -78 -113 -91 -25 -6 -471 -10 -1332 -10 -1374 1 -1340 0 -1392 47 -11 10
-29 35 -39 55 -18 36 -19 79 -19 1198 0 1119 1 1162 19 1198 10 20 28 45 39
55 52 47 18 46 1392 47 861 0 1307 -4 1332 -10z m1738 -1290 c0 -495 -1 -900
-3 -900 -1 0 -295 117 -652 260 l-650 260 0 380 0 380 645 259 c355 143 648
260 653 260 4 1 7 -404 7 -899z"/>
</g>
</svg>
