<?xml version="1.0" standalone="no"?>
<!DOCTYPE svg PUBLIC "-//W3C//DTD SVG 20010904//EN"
 "http://www.w3.org/TR/2001/REC-SVG-20010904/DTD/svg10.dtd">
<svg version="1.0" xmlns="http://www.w3.org/2000/svg"
 width="257.000000pt" height="239.000000pt" viewBox="0 0 257.000000 239.000000"
 preserveAspectRatio="xMidYMid meet">

<g transform="translate(0.000000,239.000000) scale(0.100000,-0.100000)"
fill="#d3d3d3" stroke="none">
<path d="M444 2350 c-65 -29 -135 -125 -147 -203 -3 -21 -13 -51 -21 -68 -24
-48 -30 -97 -15 -115 10 -13 10 -17 0 -23 -7 -5 -12 -21 -12 -37 1 -16 1 -52
1 -81 -1 -52 -1 -52 37 -62 21 -6 53 -12 72 -13 35 -3 86 -42 76 -59 -8 -12
-62 -12 -69 0 -3 5 -21 11 -40 13 -31 3 -34 2 -32 -22 2 -30 36 -100 48 -100
5 0 20 -12 34 -27 19 -21 27 -24 33 -14 5 8 17 11 30 6 16 -5 20 -3 15 9 -9
24 9 19 26 -6 29 -43 59 -68 82 -68 19 0 20 2 8 11 -17 12 -2 10 80 -11 24 -6
55 -8 68 -5 17 4 32 0 46 -13 11 -10 27 -17 34 -16 6 1 17 2 22 3 18 2 11 21
-16 46 -15 14 -24 25 -20 25 4 0 32 -23 62 -51 32 -31 54 -46 54 -37 0 8 -12
27 -26 42 -15 14 -24 26 -20 26 22 0 103 -25 116 -35 9 -7 29 -11 48 -8 25 4
32 10 32 28 0 37 -11 56 -38 66 -28 11 -23 22 13 26 19 3 28 -4 40 -27 13 -25
20 -29 40 -24 24 6 25 5 25 -47 0 -32 4 -49 9 -41 6 11 13 11 35 1 23 -11 25
-15 13 -24 -13 -9 -6 -18 39 -50 69 -50 71 -85 3 -85 -12 0 -19 -7 -19 -19 0
-11 -3 -26 -6 -35 -10 -26 18 -19 51 12 21 21 37 27 58 24 15 -3 26 -9 24 -16
-6 -16 31 -66 49 -66 12 0 13 4 3 21 -9 17 -8 20 3 17 7 -3 13 -19 13 -38 0
-26 6 -37 29 -49 19 -11 33 -31 43 -61 7 -25 18 -54 23 -65 23 -51 21 -80 -5
-103 -14 -12 -25 -29 -25 -37 0 -8 -25 -40 -55 -71 -30 -32 -55 -61 -55 -65 0
-5 14 -24 30 -42 35 -40 40 -72 11 -62 -10 3 -24 -1 -31 -10 -7 -8 -23 -15
-36 -15 -13 0 -24 -4 -24 -9 0 -12 -67 -7 -105 8 -16 6 -36 14 -42 16 -13 4
-17 -6 -14 -36 1 -8 -9 -21 -23 -27 -27 -12 -37 -50 -23 -93 12 -39 75 -54
129 -31 21 9 38 23 38 30 0 10 7 9 30 -3 16 -8 34 -15 40 -15 13 0 13 37 0 45
-6 4 -7 11 -4 17 5 7 10 3 15 -10 6 -15 14 -20 26 -15 14 5 16 3 6 -7 -16 -18
-5 -44 13 -29 10 8 17 7 29 -4 8 -8 18 -17 23 -19 4 -1 18 -20 31 -41 12 -20
27 -35 32 -31 5 3 8 0 7 -8 -2 -8 5 -12 19 -11 29 3 49 -30 29 -46 -8 -7 -12
-20 -9 -29 6 -23 102 -77 130 -73 16 2 26 -5 34 -23 16 -34 49 -54 117 -72 31
-8 67 -22 79 -30 31 -20 41 -18 45 8 4 27 5 25 -112 147 -49 52 -90 100 -90
107 0 25 17 23 49 -7 27 -24 31 -26 26 -9 -10 32 2 24 46 -33 23 -28 42 -51
43 -49 0 2 15 -2 31 -9 27 -10 105 -21 105 -14 0 1 -7 22 -15 45 -22 63 -18
96 5 45 l19 -40 0 37 c1 25 -5 40 -16 47 -14 8 -15 12 -4 25 11 13 11 16 0 16
-23 0 -41 37 -29 60 9 17 8 20 -10 20 -16 0 -20 6 -20 30 0 35 -6 37 -40 13
-23 -16 -24 -16 -12 0 12 14 12 19 -2 32 -11 12 -16 13 -16 4 0 -7 -6 -4 -14
6 -8 11 -12 23 -10 27 2 4 0 9 -6 13 -5 3 -10 15 -10 26 0 10 -4 19 -10 19 -5
0 -7 7 -4 15 7 18 -17 20 -33 4 -8 -8 -9 -2 -4 22 4 20 13 33 25 35 29 4 31
13 9 37 -11 12 -24 33 -27 47 l-7 25 20 -22 c24 -29 33 -29 29 0 -2 12 -9 21
-16 19 -6 -1 -12 2 -12 8 0 13 17 13 25 0 3 -5 12 -7 20 -3 9 3 15 -1 15 -10
0 -8 -6 -18 -12 -20 -7 -3 -5 -6 6 -6 10 -1 32 -14 48 -31 30 -32 48 -36 79
-20 12 7 19 7 19 1 0 -5 -9 -13 -20 -16 -11 -3 -20 -12 -20 -19 0 -29 23 -76
37 -76 8 0 11 -4 8 -10 -3 -5 -1 -18 4 -27 8 -14 11 -15 11 -3 1 12 3 12 14
-2 7 -10 16 -15 20 -11 3 4 13 -2 20 -13 14 -18 15 -18 20 6 4 14 6 36 5 50
-3 51 0 65 13 52 18 -18 38 -14 38 8 0 11 7 20 15 20 16 0 10 27 -8 33 -7 2 2
2 18 0 l30 -4 -23 20 c-30 26 -20 52 17 45 22 -5 28 -2 28 13 0 10 -5 25 -10
33 -9 12 -9 13 3 2 39 -34 40 0 1 44 -25 28 -31 31 -41 19 -7 -8 -16 -13 -20
-10 -5 3 -11 -5 -13 -17 l-4 -23 -2 23 c-1 24 -11 28 -29 10 -6 -6 -15 -8 -19
-3 -5 4 -2 10 5 12 6 3 12 13 12 24 0 10 5 19 10 19 6 0 10 7 10 15 0 18 -5
19 -28 4 -14 -9 -27 -9 -48 -1 -19 7 -23 11 -10 11 12 1 16 6 12 17 -3 9 -6
19 -6 23 0 19 -39 51 -54 45 -19 -7 -22 16 -4 34 9 9 9 12 1 12 -7 0 -15 -5
-18 -10 -4 -6 -15 -8 -25 -5 -13 4 -21 -2 -29 -22 -11 -27 -11 -27 -6 7 l5 35
-21 -24 -20 -25 6 27 c6 21 3 28 -13 34 -12 5 -21 13 -22 18 -1 6 -8 9 -16 9
-18 -2 -18 1 1 19 13 13 7 17 -45 33 -33 10 -60 21 -60 26 0 4 7 5 15 2 8 -4
15 -2 15 4 0 6 -18 13 -40 17 -53 9 -51 20 2 20 24 0 43 5 43 10 0 6 4 16 8
23 14 21 -34 33 -58 13 -20 -16 -20 -16 -1 7 11 12 25 22 33 22 8 0 11 5 7 12
-4 6 3 4 17 -5 32 -23 92 -23 87 -1 -2 9 -10 20 -18 25 -33 17 -123 40 -139
35 -12 -5 -11 -2 3 9 10 8 23 12 28 9 5 -4 18 3 29 15 16 17 24 19 40 10 27
-14 32 -7 25 28 -14 60 -76 107 -76 57 0 -16 -23 -44 -36 -44 -4 0 -19 -10
-32 -22 l-25 -23 17 27 c10 14 24 29 32 32 17 7 19 36 2 36 -33 0 -58 -14 -58
-31 0 -11 -4 -19 -10 -19 -5 0 -10 6 -10 14 0 16 46 56 64 56 14 0 56 37 56
49 0 10 -66 51 -81 51 -6 0 -22 -9 -36 -20 -14 -11 -31 -20 -37 -20 -6 0 3 11
19 24 17 13 27 27 23 31 -10 11 -77 -42 -88 -69 -7 -16 -9 -17 -9 -4 -1 9 10
34 24 54 14 20 25 43 25 50 0 23 -23 28 -39 8 -9 -11 -32 -29 -52 -40 l-36
-21 2 28 c2 33 21 60 39 53 20 -8 39 23 32 51 -6 24 -58 65 -82 65 -11 0 -20
-19 -39 -75 -5 -15 -8 -16 -14 -6 -5 8 -14 10 -22 6 -9 -6 -11 -3 -6 8 3 9 2
27 -3 39 l-9 23 -7 -22 c-3 -13 -10 -23 -15 -23 -14 0 -11 12 12 49 l20 33
-28 -7 c-33 -8 -28 -4 -48 -40 l-17 -30 7 29 c6 27 5 28 -11 15 -16 -13 -16
-12 -5 9 7 13 23 27 37 32 20 8 25 16 22 38 -2 21 -9 28 -31 30 -16 2 -36 -3
-45 -10 -9 -8 -13 -8 -9 -1 4 7 0 13 -10 16 -14 4 -13 5 4 6 29 1 36 15 28 51
-7 32 -29 49 -73 56 -15 3 -32 12 -39 21 -20 26 -64 25 -100 -3 -39 -29 -42
-55 -10 -78 22 -15 22 -16 -7 -6 -16 6 -30 9 -31 8 -1 -2 -5 -22 -9 -45 -4
-30 -3 -43 6 -43 6 0 9 -2 6 -5 -3 -3 -12 -3 -20 0 -12 5 -14 17 -11 49 5 44
-11 73 -23 42 -3 -9 -10 -16 -16 -16 -5 0 -6 4 -3 10 3 5 2 17 -3 26 -7 13
-10 13 -14 3 -3 -8 -6 -18 -6 -22 -1 -4 -8 -14 -16 -23 -8 -8 -13 -21 -10 -29
3 -7 -3 -18 -14 -24 -16 -8 -21 -7 -26 4 -3 10 1 15 12 15 15 0 15 2 2 10 -13
8 -13 13 3 41 21 39 15 49 -15 23 -15 -13 -12 -4 12 30 31 46 32 50 17 75 -8
14 -13 37 -10 52 4 19 -1 28 -20 36 -19 9 -23 17 -20 36 3 13 -2 40 -11 60
-14 34 -18 37 -55 37 -53 0 -146 -49 -122 -64 6 -4 11 -12 11 -18 0 -7 -5 -6
-15 2 -19 16 -58 3 -50 -17 4 -12 2 -13 -8 -5 -10 9 -17 8 -25 0 -19 -19 -15
-26 26 -47 26 -15 31 -20 17 -20 -11 -1 -26 3 -34 8 -16 10 -41 4 -41 -10 0
-5 6 -9 13 -9 6 0 26 -11 42 -25 l30 -26 -38 21 c-21 11 -42 20 -47 20 -6 0
-10 -26 -10 -59 0 -62 16 -89 46 -77 13 5 15 2 11 -13 -3 -12 4 -28 19 -42 13
-12 24 -27 24 -33 0 -5 -15 4 -33 22 -37 36 -57 41 -57 13 0 -10 -7 -24 -15
-31 -13 -11 -14 -15 -1 -29 7 -9 17 -27 21 -39 5 -18 12 -23 30 -19 18 3 25
-1 30 -20 7 -30 -13 -54 -33 -39 -72 57 -107 128 -98 197 5 37 3 55 -9 71 -17
25 -20 74 -6 83 5 3 17 28 27 57 9 29 34 70 57 95 21 23 37 49 34 56 -5 14
-60 27 -102 26 -11 0 -38 -9 -61 -19z m806 -320 c0 -5 -5 -10 -11 -10 -5 0 -7
5 -4 10 3 6 8 10 11 10 2 0 4 -4 4 -10z m-115 -60 c3 -5 1 -10 -4 -10 -6 0
-11 5 -11 10 0 6 2 10 4 10 3 0 8 -4 11 -10z m-48 -72 c-3 -8 -6 -5 -6 6 -1
11 2 17 5 13 3 -3 4 -12 1 -19z m-467 -153 c0 -10 -10 -15 -26 -15 -22 0 -25
2 -14 15 7 8 19 15 26 15 8 0 14 -7 14 -15z m-60 -11 c0 -10 -44 -43 -58 -44
-7 0 0 11 15 25 27 24 43 31 43 19z m60 -30 c0 -8 -5 -12 -10 -9 -6 4 -8 11
-5 16 9 14 15 11 15 -7z m430 -93 c0 -6 -4 -13 -10 -16 -5 -3 -10 1 -10 9 0 9
5 16 10 16 6 0 10 -4 10 -9z m518 -26 c-6 -14 -13 -23 -15 -21 -5 5 15 46 22
46 3 0 -1 -11 -7 -25z m125 -160 c-3 -9 -8 -14 -10 -11 -3 3 -2 9 2 15 9 16
15 13 8 -4z m-463 -19 c0 -2 -7 -7 -16 -10 -8 -3 -12 -2 -9 4 6 10 25 14 25 6z
m640 -256 c0 -5 -5 -10 -11 -10 -5 0 -7 5 -4 10 3 6 8 10 11 10 2 0 4 -4 4
-10z m138 -135 c-3 -3 -9 2 -12 12 -6 14 -5 15 5 6 7 -7 10 -15 7 -18z m-373
-153 c3 -10 23 -25 45 -35 22 -10 38 -22 35 -27 -3 -5 1 -10 7 -13 10 -4 9 -8
-2 -20 -17 -17 -59 -25 -76 -15 -6 4 -17 -4 -24 -17 -19 -36 -28 -31 -26 16 0
30 -5 45 -19 55 -10 8 -14 14 -8 14 11 0 21 21 28 59 2 9 4 18 4 20 2 8 31
-22 36 -37z m-95 -32 c18 -12 2 -12 -25 0 -13 6 -15 9 -5 9 8 0 22 -4 30 -9z
m285 -129 c3 -5 1 -12 -5 -16 -5 -3 -10 1 -10 9 0 18 6 21 15 7z"/>
<path d="M2020 168 c0 -16 5 -28 10 -28 13 0 13 20 0 40 -8 12 -10 9 -10 -12z"/>
</g>
</svg>
