<?xml version="1.0" standalone="no"?>
<!DOCTYPE svg PUBLIC "-//W3C//DTD SVG 20010904//EN"
 "http://www.w3.org/TR/2001/REC-SVG-20010904/DTD/svg10.dtd">
<svg version="1.0" xmlns="http://www.w3.org/2000/svg"
 width="489.000000pt" height="564.000000pt" viewBox="0 0 489.000000 564.000000"
 preserveAspectRatio="xMidYMid meet">

<g transform="translate(0.000000,564.000000) scale(0.100000,-0.100000)"
fill="#6495ED" stroke="none">
<path d="M3335 5580 c-63 -9 -89 -25 -111 -66 -17 -31 -17 -33 9 -83 29 -54
24 -67 -10 -27 -37 42 -46 67 -39 112 4 33 2 43 -10 48 -26 10 -114 7 -137 -5
-22 -13 -56 -49 -57 -62 0 -4 -12 -26 -26 -49 -15 -23 -27 -55 -26 -70 1 -47
47 -133 86 -163 34 -26 45 -48 28 -59 -9 -5 -120 123 -144 167 -9 18 -17 40
-18 49 0 9 -9 37 -19 62 -24 55 -67 77 -146 73 -42 -2 -60 3 -84 21 -26 19
-42 22 -118 22 -116 -1 -127 -9 -112 -80 10 -49 48 -105 92 -138 9 -7 17 -21
17 -31 0 -10 11 -35 25 -55 17 -26 25 -50 25 -81 0 -24 6 -49 13 -55 6 -5 24
-19 40 -31 32 -24 33 -36 7 -69 l-20 -25 0 26 c0 18 -14 39 -45 68 -44 40 -79
104 -105 189 -10 33 -25 51 -58 74 -49 33 -67 31 -88 -11 -6 -12 -14 -24 -17
-28 -13 -12 -37 20 -37 48 0 34 -22 39 -43 9 -14 -20 -15 -19 -42 20 -33 48
-51 50 -120 12 -65 -35 -71 -63 -21 -93 39 -23 42 -30 24 -59 -10 -15 -9 -23
7 -40 24 -27 78 -60 124 -76 21 -8 28 -13 16 -13 -11 0 -38 8 -60 19 -22 11
-53 19 -69 20 -26 0 -28 -2 -21 -27 4 -19 3 -25 -4 -18 -5 6 -13 33 -16 60 -7
51 -28 85 -52 85 -7 0 -13 5 -13 10 0 17 -120 12 -126 -4 -5 -13 57 -129 87
-164 6 -7 15 -29 21 -49 17 -64 -24 -69 -62 -8 -20 33 -90 75 -123 75 -10 0
-22 -11 -29 -25 -13 -30 2 -72 38 -106 32 -30 30 -39 -9 -39 -89 0 -114 -146
-32 -190 16 -8 29 -26 32 -43 6 -29 83 -99 123 -112 11 -4 20 -15 20 -26 0
-11 7 -31 16 -45 9 -13 14 -27 11 -31 -13 -12 -103 68 -200 175 -48 54 -71 62
-90 31 -7 -11 -5 -33 8 -73 22 -71 47 -103 83 -109 15 -2 5 -4 -23 -3 l-50 2
-7 44 c-4 24 -18 59 -32 79 -13 20 -27 49 -30 65 -10 40 -68 96 -100 96 -25 0
-106 45 -106 59 0 4 5 12 12 19 20 20 -5 34 -59 35 -26 0 -58 -3 -70 -7 -26
-8 -31 -41 -7 -54 15 -8 33 -67 34 -109 0 -37 -46 -70 -108 -78 -75 -9 -82
-13 -82 -45 0 -31 48 -80 79 -80 10 0 29 -8 42 -18 13 -10 51 -31 84 -46 83
-37 90 -42 89 -55 -1 -6 -2 -24 -2 -41 -3 -43 -20 -37 -43 14 -21 48 -38 59
-75 50 -28 -7 -28 -7 -8 -42 16 -27 8 -19 -31 29 -64 80 -129 87 -160 16 -17
-39 -17 -41 0 -54 21 -14 8 -18 -14 -4 -10 6 -12 19 -7 45 4 21 3 36 -3 36 -5
0 -12 9 -16 19 -3 11 -25 27 -50 37 -51 19 -76 13 -145 -37 -48 -35 -60 -80
-36 -139 9 -22 16 -48 15 -58 0 -13 -2 -14 -5 -2 -27 81 -61 121 -49 56 4 -19
2 -43 -5 -55 -11 -21 -12 -21 -36 14 -13 20 -24 42 -24 50 0 11 -12 10 -60 -7
-37 -12 -60 -26 -60 -34 0 -8 -15 -21 -34 -29 -18 -8 -36 -23 -39 -35 -3 -11
-13 -23 -24 -27 -23 -9 -39 -28 -64 -80 l-21 -42 36 -34 c20 -19 36 -40 36
-46 0 -8 11 -11 27 -9 21 2 30 11 37 33 21 69 31 85 52 85 12 0 24 7 28 15 9
23 22 18 36 -15 7 -16 20 -32 30 -35 17 -5 17 -8 3 -35 -8 -17 -20 -30 -28
-30 -7 0 -24 -15 -39 -34 -14 -19 -35 -38 -46 -41 -25 -8 -26 -42 -1 -50 10
-3 21 -15 24 -26 5 -20 7 -20 39 -3 18 9 50 31 70 48 107 89 109 90 167 94 36
3 68 -1 91 -11 35 -15 35 -15 -32 -10 -63 5 -67 4 -93 -23 -15 -16 -57 -59
-93 -95 -66 -67 -76 -99 -33 -99 23 0 56 -46 40 -55 -6 -4 -26 -4 -44 -1 -24
5 -42 2 -61 -10 -24 -16 -26 -22 -22 -73 4 -44 10 -59 32 -78 32 -27 91 -29
141 -4 17 8 73 18 125 21 121 8 234 49 261 95 23 39 142 117 171 113 32 -5 33
-25 1 -41 -15 -9 -46 -34 -68 -58 -127 -137 -152 -156 -219 -169 -52 -10 -71
-9 -113 3 -28 9 -55 12 -59 8 -5 -4 -36 -18 -69 -31 -75 -29 -85 -37 -85 -66
0 -16 24 -44 79 -94 44 -40 88 -77 99 -84 11 -6 31 -19 46 -30 40 -28 69 -15
100 46 40 79 110 198 143 243 32 44 38 47 178 71 55 9 135 30 178 45 43 16 84
29 90 29 20 -1 -121 -55 -246 -95 -130 -42 -167 -70 -187 -144 -6 -22 -14 -41
-19 -43 -14 -5 -91 -157 -91 -179 0 -12 15 -26 40 -39 47 -24 66 -25 74 -5 3
8 10 15 17 15 6 0 8 -7 5 -15 -9 -24 38 -37 124 -36 125 1 167 33 154 116 -5
34 -2 51 10 70 19 29 42 35 24 6 -9 -15 -9 -23 0 -34 11 -13 21 -12 76 7 34
12 76 34 92 49 16 15 32 23 37 18 15 -15 -16 -50 -64 -71 -58 -25 -101 -73
-97 -109 3 -25 5 -26 63 -23 33 2 64 8 70 13 5 5 16 9 25 9 19 0 168 80 233
124 79 55 117 94 117 121 0 14 9 34 21 46 15 15 19 28 14 46 -3 15 -1 39 6 55
10 25 9 35 -5 59 -20 33 -12 38 19 9 11 -10 25 -16 30 -12 6 4 25 38 44 75 25
51 45 77 84 107 29 21 67 51 85 66 18 15 35 24 38 22 11 -12 -11 -39 -43 -54
-19 -9 -42 -28 -51 -41 -9 -14 -36 -49 -59 -79 -24 -29 -43 -63 -43 -75 0 -25
-15 -54 -47 -93 -20 -24 -23 -36 -18 -68 4 -24 2 -44 -5 -52 -19 -24 4 -26 86
-5 75 20 82 20 139 4 33 -9 68 -13 77 -10 16 6 33 -19 23 -35 -3 -4 -49 -11
-102 -15 -104 -8 -176 -35 -276 -103 -90 -63 -86 -85 13 -70 66 10 120 0 120
-22 0 -18 -42 -30 -155 -43 -102 -11 -110 -14 -113 -34 -2 -15 -12 -25 -28
-28 -13 -3 -36 -7 -51 -10 -44 -9 -165 -46 -200 -61 -17 -8 -44 -14 -61 -14
-56 0 -60 -22 -18 -106 20 -41 45 -83 54 -92 10 -10 24 -32 31 -50 14 -34 58
-72 84 -72 11 0 14 -16 12 -77 -1 -86 8 -119 37 -129 10 -3 26 -14 36 -24 24
-26 50 -27 105 -6 66 26 69 14 4 -18 -57 -27 -101 -33 -113 -15 -4 7 -21 9
-44 5 -35 -5 -38 -4 -33 15 4 14 0 25 -11 31 -19 11 -56 89 -56 118 0 11 -13
34 -29 53 -40 45 -141 186 -141 196 0 15 -54 69 -83 83 -21 11 -44 12 -83 7
-64 -9 -102 0 -157 37 -34 23 -43 24 -63 14 -32 -18 -54 -79 -54 -153 0 -79
15 -101 83 -121 67 -20 85 -32 71 -46 -8 -8 -24 -6 -59 5 -26 9 -51 13 -56 8
-4 -4 -9 -36 -11 -70 -3 -73 11 -95 76 -113 57 -16 116 -64 116 -95 0 -40 18
-73 48 -89 28 -15 30 -18 34 -100 4 -88 16 -116 49 -116 11 0 16 -5 13 -14 -3
-7 13 -33 36 -57 32 -34 37 -45 25 -47 -34 -7 -66 9 -77 38 -17 51 -78 51 -91
-1 -11 -41 73 -86 180 -96 38 -3 81 -12 96 -20 38 -19 63 -9 92 37 14 22 34
44 45 50 20 10 20 9 14 -47 -4 -32 -12 -64 -18 -70 -17 -18 -105 -33 -133 -22
-34 13 -63 11 -63 -3 0 -7 11 -26 25 -42 19 -23 34 -30 60 -30 31 0 33 -2 20
-16 -20 -22 -19 -33 5 -55 26 -23 26 -45 0 -45 -13 0 -25 12 -34 34 -10 23
-28 42 -54 55 -22 11 -42 27 -45 35 -13 33 -72 65 -132 71 -38 3 -71 13 -88
26 -25 18 -30 19 -45 6 -27 -23 -73 -43 -130 -57 -59 -14 -92 -46 -92 -91 0
-15 -5 -31 -11 -35 -6 -3 -8 -17 -5 -30 5 -19 -1 -30 -26 -53 -30 -26 -33 -34
-36 -101 -3 -46 0 -80 8 -96 10 -18 10 -26 1 -38 -37 -45 52 -50 99 -6 18 17
38 30 46 30 7 0 18 18 24 40 6 22 15 38 20 35 17 -10 11 -61 -10 -88 -11 -14
-20 -32 -20 -41 0 -25 34 -37 69 -25 24 8 37 25 62 77 17 37 34 86 37 110 3
28 9 42 20 42 14 0 14 -35 0 -125 -2 -15 3 -21 25 -23 l29 -4 -34 -17 c-41
-23 -46 -43 -17 -70 l23 -21 -30 0 c-38 0 -100 -59 -90 -86 5 -13 14 -15 46
-10 23 4 40 2 40 -3 0 -5 -12 -11 -27 -13 -29 -3 -40 -32 -13 -34 8 -1 19 -2
23 -2 5 -1 -1 -17 -12 -36 -27 -42 -26 -45 5 -80 l27 -28 23 29 c29 35 31 21
3 -18 -30 -42 -20 -55 48 -62 75 -8 97 6 132 86 16 34 33 73 39 87 7 14 22 37
34 53 12 15 25 49 29 75 l6 47 2 -46 c0 -28 -7 -65 -19 -90 -11 -24 -20 -54
-20 -67 0 -39 -49 -130 -87 -161 -35 -29 -36 -31 -20 -49 19 -21 22 -42 7 -42
-6 0 -27 7 -46 15 -45 19 -88 10 -81 -16 9 -32 -13 -32 -53 0 -21 17 -47 31
-57 31 -30 0 -55 40 -70 107 -15 74 -69 165 -110 186 -45 23 -88 29 -130 18
-59 -16 -70 -30 -76 -92 -5 -54 -4 -58 29 -93 31 -33 34 -41 34 -96 0 -65 2
-67 57 -51 33 10 59 -4 29 -15 -24 -9 -14 -76 14 -86 34 -12 19 -33 -22 -30
-24 2 -37 -1 -41 -12 -5 -11 -18 -14 -59 -10 l-53 5 -87 -85 -86 -84 5 -60 c4
-39 2 -62 -6 -66 -20 -13 -12 -42 25 -89 29 -37 40 -45 54 -37 20 11 55 130
46 158 -4 11 -2 23 4 27 6 4 10 -9 10 -35 0 -23 5 -51 12 -63 6 -12 12 -42 12
-67 1 -44 1 -45 41 -52 64 -11 73 -5 69 50 -2 38 -1 43 8 27 20 -35 60 -80 80
-87 20 -8 21 -5 32 45 4 15 13 27 22 27 11 0 13 -6 9 -19 -8 -25 19 -51 52
-51 14 0 40 -9 57 -19 37 -23 69 -28 117 -17 l35 8 -38 38 c-30 30 -38 45 -38
74 0 20 5 36 10 36 6 0 10 -6 10 -14 0 -15 44 -66 58 -66 4 0 18 9 31 21 17
16 21 27 16 50 -4 18 -3 29 4 29 6 0 11 -7 11 -15 0 -8 8 -23 18 -33 10 -10
22 -26 25 -36 5 -13 16 -16 39 -14 28 3 34 7 36 31 2 16 -4 46 -12 68 -23 56
-19 72 4 20 11 -24 20 -58 20 -76 0 -38 26 -65 64 -65 46 0 67 17 65 53 -1 18
2 39 5 49 5 11 1 18 -12 22 -19 6 -47 54 -37 64 3 3 5 0 5 -6 0 -7 13 -23 29
-37 15 -14 34 -44 40 -66 11 -35 15 -40 34 -35 60 17 78 18 102 2 31 -20 32
-52 6 -107 -35 -71 -11 -85 74 -44 28 14 57 25 66 25 9 0 22 7 29 15 7 8 20
15 30 15 10 0 27 15 39 33 11 17 25 39 30 47 5 8 12 23 15 33 7 21 42 23 50 2
10 -26 41 -1 54 43 7 23 20 42 30 44 27 7 28 105 2 163 -27 59 -60 62 -91 10
-23 -38 -33 -43 -46 -21 -4 8 -17 15 -28 18 -28 5 -30 32 -5 80 19 36 20 45 8
66 -25 47 -95 56 -126 17 -24 -30 -32 -32 -25 -7 3 15 -7 23 -48 40 -66 28
-84 28 -121 -3 -36 -31 -43 -31 -63 -3 -17 25 -15 26 58 42 35 8 34 21 -3 56
-22 20 -30 37 -30 61 l0 33 29 -45 c62 -97 116 -123 235 -114 44 4 92 14 105
22 18 12 25 12 31 3 12 -20 64 37 105 114 l36 69 -20 21 c-16 17 -19 30 -15
56 5 29 0 42 -25 73 -16 21 -28 44 -25 52 7 17 33 27 47 18 12 -7 124 -24 162
-24 11 0 32 15 46 33 25 30 29 31 54 20 30 -14 45 -3 65 46 13 32 5 42 -33 43
-45 0 -122 32 -122 49 0 12 14 15 60 15 33 -1 73 -3 90 -5 23 -4 30 -1 33 15
2 11 16 33 30 48 l27 29 -35 29 c-19 16 -38 29 -44 29 -5 0 -23 11 -40 23 -17
13 -38 27 -46 31 -8 3 -4 3 10 0 56 -14 88 -15 94 -5 4 6 18 11 30 11 13 0 34
8 47 19 20 16 23 29 26 91 3 86 -5 103 -59 131 -33 17 -52 20 -97 15 l-56 -6
33 17 c17 9 32 23 32 30 0 7 -15 22 -32 34 -26 15 -44 19 -83 15 -120 -11
-158 -25 -175 -67 -7 -16 -19 -34 -28 -41 -8 -7 -1 13 16 44 18 31 29 63 26
71 -3 9 -29 19 -62 26 l-57 10 54 -4 c30 -2 62 -11 71 -20 17 -15 21 -15 52 1
18 10 62 20 97 23 36 3 66 11 67 16 5 16 -65 42 -130 50 -33 4 -69 11 -80 15
-29 12 -1 12 51 0 24 -6 67 -6 101 -2 72 10 102 1 102 -30 0 -37 14 -49 86
-73 48 -15 74 -19 87 -13 28 15 31 35 8 67 -26 35 -26 47 -3 60 15 8 13 11
-13 22 -16 7 -62 13 -101 13 -43 1 -77 6 -87 14 -10 9 -47 14 -99 16 -53 1
-91 7 -105 16 -32 21 -29 34 6 27 32 -7 45 9 34 41 -5 13 -1 12 19 -6 19 -17
40 -23 91 -27 38 -2 67 0 67 6 0 5 -4 9 -10 9 -5 0 -12 11 -16 24 -7 30 -29
50 -69 64 -29 10 -29 10 -5 11 14 1 42 -10 63 -24 20 -14 42 -23 47 -20 6 4
24 -5 41 -19 50 -42 108 -29 100 22 -2 10 2 11 18 3 35 -19 80 -13 105 14 13
14 34 25 48 25 53 0 71 59 47 155 -10 41 -13 43 -68 59 -32 9 -69 16 -84 16
-35 0 -42 15 -15 34 30 21 47 20 73 -4 18 -17 51 -26 102 -29 7 -1 15 -17 19
-36 7 -41 22 -54 69 -65 63 -14 181 58 211 129 14 33 13 37 -2 48 -10 7 -21
13 -26 13 -18 0 -6 31 15 39 12 5 35 23 51 39 21 23 27 37 22 55 -9 37 -33 40
-95 11 -31 -14 -68 -27 -84 -29 -24 -4 -27 -2 -21 21 4 15 0 35 -11 52 -13 20
-9 18 18 -10 20 -21 40 -38 44 -38 4 0 28 14 52 30 35 24 55 30 95 30 47 0 53
3 69 30 17 28 17 31 1 55 -9 14 -24 29 -32 34 -11 6 -15 21 -14 46 2 20 -2 42
-7 49 -5 6 -15 25 -21 41 l-10 30 20 -25 c11 -14 22 -41 25 -60 8 -50 19 -65
46 -68 43 -5 85 31 104 90 34 102 99 211 162 269 16 15 41 52 57 83 16 31 35
56 44 56 23 0 97 84 121 137 37 82 48 97 83 114 128 64 245 253 179 289 -33
17 -53 12 -161 -44 -58 -29 -134 -68 -170 -86 -36 -17 -76 -39 -90 -47 -14 -8
-71 -37 -127 -64 -100 -48 -144 -79 -156 -109 -4 -12 -6 -11 -6 3 -1 9 -9 17
-18 17 -15 0 -15 2 2 14 11 7 58 33 104 57 45 24 99 58 120 75 20 16 76 54
124 84 97 59 105 76 54 114 -27 20 -29 20 -105 4 -42 -9 -84 -17 -92 -19 -8
-2 -15 2 -16 9 -1 6 -2 16 -3 21 0 5 -19 32 -42 61 -22 28 -39 54 -36 56 2 3
28 -25 57 -61 39 -49 57 -64 69 -59 30 12 76 21 304 60 68 12 91 54 30 55 -21
0 -31 3 -23 6 8 3 34 14 57 25 26 13 50 18 67 14 14 -3 37 -9 50 -12 29 -7 69
27 60 51 -4 11 0 15 16 15 14 0 38 16 59 38 20 21 60 56 89 77 35 26 55 49 59
68 3 15 11 27 18 27 20 0 52 43 63 83 7 25 26 52 56 78 32 28 49 53 57 82 14
53 8 133 -14 172 -9 17 -21 41 -27 55 -15 32 -28 40 -68 40 -25 0 -35 5 -39
20 -3 11 -9 20 -14 20 -12 0 -80 -48 -96 -68 -12 -15 -13 -12 -7 23 3 22 8 48
11 57 3 12 -4 22 -21 30 -19 8 -26 19 -26 40 0 15 -4 28 -9 28 -7 0 -51 64
-51 74 0 2 9 6 20 9 39 10 20 107 -21 107 -27 0 -75 -26 -82 -45 -4 -8 -11
-15 -17 -15 -15 0 -40 63 -40 100 0 17 -5 30 -12 30 -22 -1 -48 -26 -48 -47 0
-10 -4 -23 -9 -28 -5 -6 -11 -19 -13 -30 -5 -21 -7 -18 -22 28 -3 9 -13 17
-22 17 -14 0 -124 -91 -206 -171 -30 -29 -66 -39 -134 -39 -68 0 -58 20 31 65
71 36 205 162 205 194 0 26 -56 63 -86 56 -32 -7 -137 23 -156 45 -21 26 -46
25 -74 -1 l-22 -20 -10 30 c-10 28 -14 30 -43 24 -23 -4 -30 -3 -25 6 4 6 0
14 -9 17 -10 4 -15 16 -13 29 1 12 -3 30 -11 39 -14 17 -35 18 -116 6z m-1525
-4631 c0 -6 -4 -7 -10 -4 -5 3 -10 11 -10 16 0 6 5 7 10 4 6 -3 10 -11 10 -16z"/>
</g>
</svg>
